<svg xmlns="http://www.w3.org/2000/svg" width="160" height="48" viewBox="0 0 160 48">
  <!-- Flower Icon -->
  <g transform="translate(24, 24) scale(1.5)" fill="none" stroke="#C76798" stroke-width="2" stroke-linecap="round" stroke-linejoin="round">
    <path d="M0 -4.5a4.5 4.5 0 1 1 4.5 4.5M0 -4.5A4.5 4.5 0 1 0 -4.5 0M0 -4.5V-3m-4.5 3a4.5 4.5 0 1 0 4.5 4.5M-4.5 0H-3m7.5 0a4.5 4.5 0 1 1-4.5 4.5m4.5-4.5H3m-3 4.5V3"/>
    <circle cx="0" cy="0" r="3"/>
    <path d="m-4 4 1.5-1.5"/>
    <path d="M2.5 -2.5 4 -4"/>
    <path d="m-4 -4 1.5 1.5"/>
    <path d="M2.5 2.5 4 4"/>
  </g>
  <!-- Wordmark -->
  <text x="52" y="32" font-family="Plus Jakarta Sans, -apple-system, sans-serif" font-size="26" font-weight="800" fill="#002020" letter-spacing="-0.03em">Abril</text>
</svg>
